<?xml version="1.0" encoding="UTF-8" standalone="no"?><!DOCTYPE svg PUBLIC "-//W3C//DTD SVG 1.1//EN" "http://www.w3.org/Graphics/SVG/1.1/DTD/svg11.dtd"><svg width="100%" height="100%" viewBox="0 0 161 146" version="1.1" xmlns="http://www.w3.org/2000/svg" xmlns:xlink="http://www.w3.org/1999/xlink" xml:space="preserve" xmlns:serif="http://www.serif.com/" style="fill-rule:evenodd;clip-rule:evenodd;stroke-linejoin:round;stroke-miterlimit:2;"><rect id="ArtBoard1" x="0" y="0" width="161" height="145.571" style="fill:none;"/><clipPath id="_clip1"><rect x="0" y="0" width="161" height="145.571"/></clipPath><g clip-path="url(#_clip1)"><g><g><path d="M140.874,-0.017l-80.709,-0c-11.059,-0 -19.913,8.002 -19.913,18.009l-0,72.943c-0,10.003 9.055,18.191 20.126,18.191l80.496,-0.003c11.067,-0 20.126,-8.185 20.126,-18.191l0,-72.761c0,-10.003 -9.055,-18.191 -20.126,-18.191l0,0.003Zm0,90.952l-80.5,0l0,-72.761l80.5,0l0,72.761Zm-120.748,-18.191l-20.126,-0l0,54.57c0,10.003 9.055,18.191 20.126,18.191l60.374,0l0,-18.191l-60.374,0l-0,-54.57Z" style="fill:#ed4124;"/><path d="M22.218,83.924l-15.08,0l-0,40.89c-0,7.495 6.785,13.63 15.08,13.63l45.239,0l-0,-13.63l-45.239,-0l-0,-40.89Z" style="fill:#232629;"/><path d="M26.726,92.074l-10.571,0l-0,28.665c-0,5.254 4.756,9.555 10.571,9.555l31.713,0l0,-9.555l-31.713,-0l0,-28.665Z" style="fill:#35383a;"/><path d="M133.223,10.357l-65.366,0c-8.957,0 -16.127,6.481 -16.127,14.586l-0,59.075c-0,8.102 7.333,14.733 16.299,14.733l65.194,-0.002c8.963,-0 16.299,-6.629 16.299,-14.733l0,-58.929c0,-8.101 -7.334,-14.732 -16.299,-14.732l-0,0.002Zm-0,73.661l-65.197,0l0,-58.928l65.197,0l-0,58.928Z" style="fill:#232629;"/><path d="M127.622,17.951l-54.135,0c-7.417,0 -13.356,5.368 -13.356,12.079l0,48.926c0,6.709 6.074,12.201 13.499,12.201l53.992,-0.002c7.423,-0 13.499,-5.49 13.499,-12.202l-0,-48.803c-0,-6.709 -6.074,-12.201 -13.499,-12.201l-0,0.002Zm-0,61.005l-53.994,-0l-0,-48.803l53.994,-0l-0,48.803Z" style="fill:#35383a;"/></g><rect x="69.7" y="28.041" width="62.548" height="53.239" style="fill:#35383a;"/><g><path d="M83.401,3.51l-11.039,57.128l22.412,-0l-6.158,48.32l50.996,-68.9l-29.95,-0l10.188,-36.548l-36.449,-0Z" style="fill:#ffc73d;fill-rule:nonzero;"/><path d="M104.079,3.51l-9.614,45.584l18.606,-0l-24.455,59.864l50.996,-68.9l-29.95,-0l10.188,-36.548l-15.771,-0Z" style="fill:#faa63f;fill-rule:nonzero;"/></g></g></g></svg>